<svg xmlns="http://www.w3.org/2000/svg" viewBox="20 -5 160 160" width="200" height="200">
  <defs>
    <mask id="head-cutout" maskUnits="userSpaceOnUse">
      <rect x="0" y="-30" width="200" height="200" fill="white" />
      <rect x="77" y="45" width="46" height="32" rx="9" ry="9" fill="black" />
    </mask>
    <linearGradient id="tentacle-grad" x1="0%" y1="0%" x2="100%" y2="100%">
      <stop offset="0%" stop-color="#00ffab" />
      <stop offset="50%" stop-color="#00c4ff" />
      <stop offset="100%" stop-color="#7b61ff" />
    </linearGradient>
    <linearGradient id="head-grad" x1="0%" y1="0%" x2="100%" y2="100%">
      <stop offset="0%" stop-color="#00ffab" />
      <stop offset="100%" stop-color="#00c4ff" />
    </linearGradient>
    <filter id="glow" x="-20%" y="-20%" width="140%" height="140%">
      <feGaussianBlur stdDeviation="2.5" result="blur" />
      <feMerge>
        <feMergeNode in="blur" />
        <feMergeNode in="SourceGraphic" />
      </feMerge>
    </filter>
  </defs>

  <!-- Tentacles — masked so they disappear behind the robot head area -->
  <g mask="url(#head-cutout)" filter="url(#glow)">
    <g transform="translate(100, 70) scale(0.52) translate(-186, -190)">

      <!-- Tentacle 1: upper-right -->
      <path fill="url(#tentacle-grad)"
        d="M 208.628906 188.621094 C 208.945313 188.984375 208.824219 188.820313 209.242188 189.019531 C 209.542969 189.160156 209.355469 189.0625 209.617188 189.203125 L 222.972656 195.144531 C 224.765625 195.722656 226.839844 195.546875 228.652344 195.410156 C 229.886719 195.316406 230.707031 194.988281 231.890625 194.609375 L 243.570313 189.367188 C 243.597656 189.351563 243.632813 189.328125 243.65625 189.316406 L 252.359375 185.570313 C 252.382813 185.5625 252.421875 185.550781 252.4375 185.542969 L 256.113281 184.144531 C 256.136719 184.136719 256.382813 184.011719 256.488281 183.96875 L 257.4375 183.601563 C 257.453125 183.59375 257.492188 183.582031 257.511719 183.578125 L 258.585938 183.144531 C 258.609375 183.136719 258.648438 183.117188 258.671875 183.105469 L 259.058594 182.988281 C 259.261719 182.925781 259.082031 182.992188 259.304688 182.894531 L 264.289063 180.9375 C 264.320313 180.925781 264.355469 180.90625 264.386719 180.894531 L 265.660156 180.503906 C 265.683594 180.492188 265.722656 180.476563 265.746094 180.464844 L 275.886719 176.851563 C 276.289063 176.75 276.527344 176.730469 276.945313 176.660156 C 278.253906 176.4375 280.019531 176.699219 281.261719 176.96875 C 281.96875 177.121094 282.433594 177.355469 283.203125 177.527344 L 288.316406 179.152344 C 288.335938 179.15625 288.371094 179.171875 288.390625 179.179688 L 296.222656 182.828125 C 297.898438 183.914063 300.984375 186.585938 302.191406 188.101563 L 302.992188 189.105469 C 303.914063 190.089844 305.050781 191.332031 305.726563 192.480469 L 306.996094 194.402344 C 307.734375 195.746094 308.609375 196.972656 309.230469 198.414063 L 309.730469 199.71875 C 309.871094 200.109375 309.789063 199.871094 309.933594 200.210938 C 310.230469 200.910156 310.21875 201.445313 310.558594 202.082031 C 309.613281 202.582031 309.402344 202.382813 309.4375 203.457031 L 309.445313 210.550781 C 310.257813 210.738281 311.21875 211.273438 311.945313 211.660156 C 311.945313 212.238281 311.972656 212.195313 311.832031 212.660156 C 311.445313 213.9375 311.277344 216.0625 310.992188 217.660156 C 310.894531 218.191406 310.835938 218.085938 310.835938 218.738281 L 307.820313 218.417969 C 307.363281 218.445313 307.277344 218.714844 307.054688 219.121094 L 306.230469 220.519531 C 306.078125 220.804688 305.949219 220.976563 305.757813 221.292969 L 304.476563 223.484375 C 304.261719 223.902344 304.277344 223.925781 304.035156 224.289063 L 305.265625 225.835938 C 305.292969 225.867188 305.371094 225.949219 305.398438 225.980469 L 306.53125 227.34375 C 306.261719 227.855469 305.667969 228.230469 305.789063 228.871094 C 305.664063 229.167969 305.042969 230.007813 304.839844 230.226563 C 303.972656 231.175781 302.757813 232.4375 301.679688 233.199219 C 301.46875 233.347656 301.699219 233.21875 301.394531 233.390625 C 300.304688 232.683594 299.832031 231.75 298.898438 231.054688 C 298.429688 231.117188 293.386719 233.203125 293.15625 233.433594 C 292.761719 234.449219 293.238281 236.710938 293.023438 237.992188 C 291.328125 239.039063 288.28125 239.710938 286.039063 239.351563 C 285.964844 239.050781 285.839844 237.859375 285.800781 237.472656 C 285.730469 236.789063 285.648438 236.386719 285.558594 235.664063 L 279.050781 234.699219 C 278.667969 235.246094 278.332031 236.066406 277.976563 236.683594 C 277.167969 238.078125 277.214844 238.703125 276.554688 238.691406 C 276.011719 238.683594 276.660156 238.730469 276.339844 238.671875 C 276.324219 238.667969 275.996094 238.550781 275.941406 238.527344 L 273.523438 237.601563 C 272.722656 237.328125 270.875 236.742188 270.359375 236.328125 C 270.328125 235.523438 271.257813 233.558594 271.347656 232.621094 C 270.335938 231.890625 267.199219 228.875 266.417969 228.421875 C 265.859375 228.617188 263.90625 230.035156 263.226563 230.425781 C 262.691406 229.972656 260.007813 225.636719 259.703125 224.847656 C 259.964844 224.363281 260.652344 223.796875 261.101563 223.4375 C 261.003906 222.761719 259.574219 217.414063 259.339844 217.074219 L 256.011719 217.050781 C 255.871094 216.054688 255.960938 214.519531 255.960938 213.464844 C 255.964844 212.175781 255.734375 211.503906 255.785156 210.164063 L 258.714844 209.914063 C 258.839844 209.453125 259.128906 203.328125 258.921875 202.914063 C 258.273438 202.28125 257.757813 202.027344 257.734375 200.835938 C 257.71875 199.777344 258.285156 199.023438 258.269531 198.042969 C 257.722656 198.203125 257.238281 198.824219 256.917969 199.242188 C 255.757813 200.746094 254.863281 202.027344 254.003906 203.820313 C 251.019531 210.019531 249.171875 212.363281 251.855469 218.871094 C 254.4375 225.148438 257.5 233.902344 260.570313 239.863281 L 266.902344 253.441406 C 266.835938 253.988281 267.484375 255.199219 267.78125 255.6875 C 268.746094 257.285156 267.710938 257.132813 270.355469 257.703125 C 270.808594 257.804688 271.332031 257.914063 271.730469 257.980469 L 276.683594 258.996094 C 277.589844 259.183594 278.617188 259.289063 279.464844 259.550781 C 280.308594 259.8125 281.398438 259.808594 282.257813 260.074219 C 282.277344 260.078125 282.316406 260.097656 282.339844 260.101563 L 282.488281 260.152344 C 282.523438 260.164063 282.695313 260.199219 282.730469 260.207031 C 283.515625 260.371094 284.234375 260.585938 284.878906 260.433594 C 286.800781 260.734375 288.664063 261.128906 290.488281 261.535156 C 291.222656 261.695313 292.710938 261.945313 293.488281 261.933594 C 295.363281 261.902344 295.847656 260.878906 296.535156 260.101563 L 307.824219 246.828125 C 314.660156 238.488281 318.230469 231.191406 320.921875 220.664063 C 322.117188 215.992188 322.34375 214.355469 323.140625 209.65625 C 323.46875 207.699219 323.613281 204.941406 323.808594 203.800781 C 323.914063 203.183594 324.125 201.574219 324.121094 200.839844 C 324.117188 199.621094 324.3125 198.941406 324.296875 197.78125 C 324.21875 190.921875 324.003906 186.027344 322.789063 179.539063 C 321.839844 174.492188 320.332031 169.007813 316.992188 165.667969 C 314.808594 163.484375 312.121094 162.203125 308.117188 161.480469 C 306.257813 161.140625 304.164063 161.070313 302.128906 160.800781 L 286.820313 159.773438 L 280.472656 159.972656 C 279.585938 160.105469 278.480469 160.203125 277.644531 160.28125 C 273.140625 160.710938 270.871094 161.144531 266.59375 162.296875 C 265.746094 162.523438 264.832031 162.789063 264.011719 163.058594 C 263.074219 163.367188 262.355469 163.703125 261.480469 163.84375 C 261.132813 163.039063 260.394531 162.171875 260.011719 161.230469 L 253.582031 162.347656 C 252.566406 163.246094 253.792969 164.316406 252.476563 164.972656 L 248.703125 166.617188 C 247.441406 167.191406 246.320313 165.046875 245.460938 164.90625 C 245.007813 164.96875 240.269531 167.550781 239.667969 167.96875 C 239.621094 168.511719 239.519531 168.855469 239.484375 169.324219 C 239.449219 169.765625 239.527344 170.421875 239.449219 170.820313 C 239.320313 171.503906 238.445313 171.859375 237.898438 172.175781 C 236.882813 172.765625 235.285156 173.980469 234.21875 174.398438 C 233.359375 173.785156 231.410156 172.019531 230.746094 171.671875 C 229.417969 172.257813 226.867188 174.273438 225.328125 174.972656 C 225.21875 176.25 225.328125 177.300781 225.136719 178.484375 C 224.585938 181.820313 219.863281 178.246094 218.613281 177.441406 L 205.867188 169.082031 C 204.824219 168.414063 204.921875 168.144531 203.597656 168.8125 L 188.855469 174.175781 L 188.875 180.152344 C 189.511719 180.691406 204.617188 186.644531 206.566406 187.519531 C 206.96875 187.699219 207.304688 187.835938 207.628906 187.984375 L 208.628906 188.621094" />

      <!-- Tentacle 2: left -->
      <path fill="url(#tentacle-grad)"
        d="M 51.074219 220.40625 C 50.898438 221.234375 52.050781 224.429688 52.394531 225.8125 L 54.222656 230.78125 C 54.347656 231.140625 54.371094 231.105469 54.535156 231.441406 C 54.871094 232.121094 54.675781 232.121094 55.265625 233.210938 L 56.035156 234.9375 C 56.3125 235.570313 56.386719 235.691406 56.695313 236.222656 L 72.789063 257.324219 C 72.933594 257.515625 74.351563 259.21875 74.734375 259.324219 C 75.652344 259.988281 75.796875 260.621094 76.621094 261.273438 C 77.46875 261.941406 78.515625 262.03125 79.65625 261.828125 C 87.121094 260.519531 94.40625 258.859375 101.777344 257.453125 C 103.457031 257.132813 103.199219 257.410156 103.957031 255.878906 L 108.84375 245.644531 C 109.644531 243.890625 110.453125 242.191406 111.257813 240.398438 C 114.210938 233.804688 116.359375 228.796875 119.105469 221.910156 C 119.464844 221.019531 119.824219 219.871094 120.164063 219.054688 C 122.960938 212.289063 121.230469 210.667969 118.527344 204.777344 C 117.839844 203.28125 115.238281 198.457031 113.875 198.0625 C 113.652344 198.535156 114.320313 199.894531 114.347656 200.699219 C 114.390625 202.023438 113.867188 202.234375 113.171875 202.914063 C 113.039063 203.925781 113.113281 205.460938 113.109375 206.527344 C 113.109375 206.757813 113.339844 209.777344 113.382813 209.914063 L 116.253906 210.152344 C 116.363281 211.28125 116.214844 211.578125 116.199219 211.625 L 116.097656 211.847656 C 115.910156 212.078125 115.957031 213.335938 115.957031 213.601563 C 115.964844 217.589844 116.75 216.796875 112.347656 216.796875 C 112.347656 217.558594 111.929688 218.777344 111.917969 218.824219 L 111.886719 218.992188 C 111.8125 219.378906 111.9375 218.914063 111.820313 219.335938 L 110.921875 222.59375 C 110.84375 222.875 110.839844 222.710938 110.832031 223.066406 C 110.8125 223.945313 110.828125 223.386719 110.960938 223.523438 C 111.4375 223.703125 112.140625 224.390625 112.398438 224.847656 C 112.097656 225.546875 109.300781 230.054688 108.878906 230.429688 C 107.9375 229.921875 106.703125 228.835938 105.6875 228.421875 C 104.984375 228.800781 101.636719 231.976563 100.738281 232.621094 L 101.792969 236.300781 C 101.355469 236.640625 95.925781 238.65625 95.214844 238.773438 L 93.054688 234.703125 L 89.273438 235.238281 C 88.605469 235.371094 88.023438 235.441406 87.355469 235.515625 C 85.804688 235.683594 86.945313 236.136719 86.253906 236.664063 L 86.3125 236.785156 C 86.304688 237.265625 86.144531 239.003906 85.976563 239.285156 C 85.328125 239.621094 82.820313 239.335938 82.074219 239.164063 C 80.875 238.882813 79.957031 238.523438 79.03125 237.996094 L 78.945313 233.429688 C 78.722656 233.207031 73.640625 231.121094 73.207031 231.054688 C 72.179688 231.738281 71.742188 232.816406 70.707031 233.390625 C 68.625 232.148438 66.644531 229.480469 65.269531 227.484375 C 65.617188 226.570313 67.070313 225.339844 67.664063 224.429688 C 67.625 223.800781 66.503906 222.128906 66.140625 221.496094 C 65.730469 220.773438 64.996094 219.386719 64.460938 218.738281 C 63.796875 218.664063 62.128906 218.988281 61.410156 219.011719 C 60.890625 218.804688 61.316406 219.136719 61.078125 218.625 L 59.882813 211.519531 L 62.515625 210.132813 L 62.519531 202.859375 L 61.320313 202.359375 C 61.476563 201.914063 61.628906 201.160156 61.785156 200.675781 C 62.242188 199.25 62.996094 197.605469 63.664063 196.292969 C 65.339844 193.003906 70.097656 187.066406 73.003906 184.671875 C 77.777344 180.742188 81.523438 179.695313 87.105469 177.828125 C 90.972656 176.535156 93.703125 175.796875 97.707031 177.027344 C 98.273438 177.199219 100.371094 177.859375 100.753906 178.128906 C 102.113281 178.488281 106.871094 180.363281 108.621094 180.976563 C 114.644531 183.078125 125.074219 187.4375 130.988281 190.113281 C 132.570313 190.828125 134.324219 191.617188 135.804688 192.359375 C 142.03125 195.488281 145.890625 196.507813 151.988281 193.707031 C 154.335938 192.628906 180.878906 181.199219 182.011719 180.152344 L 181.984375 174.183594 C 181.105469 173.84375 180.339844 173.417969 179.507813 173.070313 L 168.320313 168.738281 C 167.128906 168.128906 167.0625 168.515625 166.070313 169.191406 L 153.40625 177.492188 C 145.992188 182.597656 146.988281 178.550781 146.78125 174.964844 C 145.628906 174.539063 142.746094 172.339844 141.359375 171.671875 C 140.6875 171.996094 139.460938 173.164063 138.792969 173.695313 L 137.886719 174.398438 C 137.007813 174.097656 134.882813 172.601563 134.113281 172.132813 C 131.976563 170.835938 132.816406 171.210938 132.59375 169.195313 C 132.539063 168.738281 132.457031 168.546875 132.417969 167.976563 C 132.039063 167.703125 127.152344 165 126.644531 164.90625 C 126.367188 164.941406 124.691406 166.539063 123.867188 166.839844 C 122.234375 165.96875 119.21875 165.132813 118.996094 164.308594 C 118.78125 163.511719 119.1875 163.136719 118.59375 162.40625 C 117.992188 162.179688 112.734375 161.285156 112.074219 161.273438 C 111.828125 162.011719 110.945313 163.191406 110.515625 163.859375 C 109.707031 163.703125 108.304688 163.132813 107.445313 162.847656 C 100.550781 160.570313 91.289063 159.683594 83.886719 159.773438 C 83.117188 159.78125 82.941406 159.953125 82.238281 159.964844 L 76.128906 160.148438 C 75.433594 160.226563 75.128906 160.265625 74.3125 160.300781 L 63.257813 161.609375 C 60.171875 162.1875 57.226563 163.527344 55.175781 165.59375 C 50.90625 169.886719 49.40625 177.652344 48.65625 183.605469 C 48.167969 187.480469 48.222656 187.382813 47.960938 191.117188 C 47.804688 193.269531 47.519531 196.910156 47.871094 199.117188 C 47.992188 199.878906 47.949219 200.355469 47.972656 201.121094 L 48.546875 206.636719 C 48.867188 209.035156 49.214844 211.378906 49.625 213.714844 C 50.019531 215.964844 50.636719 218.183594 51.074219 220.40625" />

      <!-- Tentacle 3: right -->
      <path fill="url(#tentacle-grad)"
        d="M 189.742188 208.46875 C 189.726563 209.105469 189.707031 208.429688 190.757813 210.007813 C 190.902344 210.226563 191.027344 210.324219 191.222656 210.515625 L 197.929688 218.242188 C 198.269531 218.695313 198.304688 218.894531 198.921875 219.054688 L 213.160156 221.867188 C 213.492188 221.9375 214.03125 222.039063 214.585938 222.128906 L 216.667969 222.566406 C 219.195313 222.949219 222.011719 223.667969 224.421875 224.09375 C 226.324219 224.425781 230.203125 226.335938 231.75 227.589844 C 232.164063 227.925781 232.390625 228.011719 232.800781 228.347656 C 235.226563 230.332031 235.40625 230.84375 237.375 232.789063 C 237.761719 233.175781 237.871094 233.371094 238.214844 233.757813 C 238.40625 233.980469 238.410156 233.9375 238.585938 234.21875 L 241.296875 237.894531 C 241.558594 238.257813 241.777344 238.542969 242.058594 238.9375 C 242.144531 239.054688 242.148438 239.070313 242.230469 239.179688 C 242.375 239.378906 242.261719 239.207031 242.40625 239.417969 L 243.453125 241.148438 C 243.597656 241.410156 243.640625 241.414063 243.785156 241.648438 C 244.492188 242.789063 245.03125 244.003906 245.570313 245.214844 L 246.328125 247.019531 C 246.53125 247.484375 246.550781 247.960938 246.734375 248.414063 C 247.09375 249.285156 247.660156 252.019531 247.679688 252.882813 C 247.730469 255.046875 247.992188 255.25 247.699219 258.039063 C 247.671875 258.335938 247.695313 258.574219 247.679688 258.855469 C 247.648438 259.433594 247.265625 261.085938 247.265625 262.460938 C 246.695313 262.59375 246.613281 262.601563 245.875 262.601563 C 245.714844 262.839844 245.546875 263.058594 245.390625 263.363281 L 243.019531 267.519531 C 242.789063 267.894531 242.855469 267.996094 242.621094 268.371094 C 241.832031 269.636719 242.003906 268.921875 242.75 270.308594 C 243.046875 270.855469 243.027344 270.878906 243.515625 271.203125 L 240.816406 274.753906 C 240.632813 275 240.585938 275.050781 240.394531 275.304688 C 240.023438 275.785156 240.039063 275.515625 240.125 276.0625 C 239.96875 276.46875 240.078125 276.308594 239.769531 276.621094 C 238.886719 276.515625 238.167969 275.382813 237.269531 275.214844 L 233.234375 277.867188 C 232.773438 278.164063 232.285156 278.449219 231.855469 278.820313 L 232.707031 282.03125 C 232.210938 282.320313 226.476563 284.625 226.054688 284.628906 C 225.511719 283.746094 225.242188 282.171875 224.730469 281.390625 C 223.910156 281.15625 222.355469 281.273438 221.441406 281.285156 C 220.320313 281.296875 219.5 281.085938 218.261719 281.101563 C 217.621094 282.0625 217.09375 283.824219 216.449219 284.933594 C 215.988281 284.960938 210.699219 283.546875 210.195313 283.28125 L 210.871094 279.554688 L 206.039063 276.152344 C 205.355469 276.617188 203.339844 278.320313 202.707031 278.566406 L 198.40625 273.148438 L 200.929688 270.527344 C 200.859375 269.699219 199.179688 266.214844 198.761719 265.160156 C 197.3125 264.984375 195.976563 265.070313 194.566406 264.914063 L 194.546875 258.746094 C 195.277344 258.898438 195.359375 258.929688 196.230469 258.882813 L 197.996094 252.746094 C 197.4375 251.941406 196.117188 251.273438 195.386719 250.386719 C 195.414063 250.3125 197.980469 245.234375 198.148438 245.566406 L 200.382813 245.953125 L 202.910156 242.683594 C 203.140625 242.394531 203.660156 241.746094 203.769531 241.589844 C 204.453125 240.550781 203.238281 239.28125 204.0625 238.28125 C 204.5 237.746094 205.527344 236.636719 205.777344 236.070313 C 204.816406 236.007813 203.273438 236.308594 202.292969 236.480469 C 201.65625 236.277344 201.207031 236.546875 200.609375 236.753906 L 199.890625 237.007813 C 196.460938 238.574219 194.222656 240.679688 191.71875 243.285156 L 189 246.679688 C 188.519531 247.480469 188.6875 248.640625 188.6875 249.554688 L 188.746094 278.527344 C 188.796875 278.789063 188.992188 279.34375 189.082031 279.699219 C 189.203125 280.191406 189.257813 280.628906 189.367188 281.078125 L 192.605469 289.976563 C 192.613281 289.992188 192.625 290.03125 192.632813 290.046875 L 193.929688 293.171875 C 194.089844 293.550781 194.089844 293.40625 194.277344 293.792969 C 194.683594 294.632813 194.984375 295.308594 195.433594 296.109375 L 196.511719 298.363281 C 196.847656 298.964844 196.925781 298.777344 197.566406 298.972656 L 213.328125 303.65625 C 213.882813 303.792969 214.121094 304.03125 214.785156 303.882813 C 216.042969 304.121094 217.613281 304.640625 218.925781 305.070313 C 219.894531 305.386719 222.148438 306.320313 223.070313 305.863281 C 227.855469 303.488281 228.960938 302.96875 233.203125 300.171875 C 234.222656 299.5 235.390625 298.722656 236.296875 297.988281 L 240.652344 294.441406 C 241.195313 294.039063 241.46875 293.640625 241.953125 293.238281 L 244.710938 290.71875 C 245.886719 289.769531 251.144531 284.027344 252.421875 282.746094 C 252.894531 282.273438 253.265625 281.898438 253.734375 281.425781 C 254.214844 280.949219 254.519531 280.527344 254.964844 280.019531 C 256.714844 278.035156 258.074219 276.96875 259.914063 274.421875 C 261.492188 272.234375 262.945313 271.089844 263.898438 267.980469 C 264.457031 266.148438 264.105469 265.058594 263.660156 263.535156 C 261.078125 254.664063 258.679688 248.734375 255.433594 240.402344 C 253.886719 236.433594 249.0625 226.570313 246.757813 222.847656 C 244.371094 218.988281 244.621094 219.710938 243.480469 215.578125 C 243.167969 214.4375 243.066406 214.816406 242.300781 214.128906 C 241.996094 213.859375 241.25 213.210938 240.878906 212.996094 C 240.476563 213.246094 239.9375 213.761719 239.464844 214.085938 L 233.789063 211.261719 C 233.773438 210.601563 234.03125 209.492188 233.933594 207.636719 C 233.332031 207.25 230.660156 206.46875 229.71875 206.160156 C 228.144531 205.648438 227.300781 205.035156 226.597656 205.5625 C 226.121094 205.914063 224.566406 207.300781 224.097656 207.292969 L 217.976563 205.019531 L 217.96875 200.949219 C 217.597656 200.65625 212.027344 198.121094 211.277344 197.878906 L 208.539063 200.550781 C 206.378906 200.304688 202.136719 196.40625 200.746094 194.746094 C 199.351563 193.085938 198.195313 191.390625 196.980469 189.484375 C 196.128906 188.148438 196.300781 187.945313 195.480469 187.652344 C 194.253906 187.210938 188.65625 184.984375 188.226563 184.972656 C 188.054688 185.785156 188.175781 195.769531 188.175781 197.503906 C 188.175781 198.625 187.941406 206.023438 188.386719 206.699219 C 188.851563 207.410156 189.460938 207.746094 189.742188 208.46875" />

      <!-- Tentacle 4: lower-left -->
      <path fill="url(#tentacle-grad)"
        d="M 127.863281 217.351563 C 127.46875 217.75 127.613281 217.617188 127.441406 218.152344 C 127.121094 219.132813 125.90625 221.027344 125.3125 221.988281 L 123.179688 225.683594 C 122.988281 226.085938 123 226.140625 122.761719 226.511719 C 122.546875 226.839844 122.53125 226.855469 122.359375 227.222656 C 122.1875 227.585938 122.097656 227.707031 121.925781 228.039063 L 113.9375 246.003906 C 113.769531 246.382813 113.746094 246.324219 113.59375 246.773438 L 112.65625 249.292969 C 112.648438 249.316406 112.632813 249.355469 112.625 249.375 L 112.371094 250.203125 C 112.367188 250.222656 112.355469 250.261719 112.347656 250.28125 L 110.546875 255.425781 C 110.355469 255.964844 110.1875 256.617188 109.988281 257.148438 L 109.753906 257.773438 C 109.625 258.152344 109.558594 258.445313 109.460938 258.746094 L 108.101563 263.050781 C 107.742188 263.980469 107.414063 265.136719 107.480469 266.203125 C 107.507813 266.699219 107.546875 266.984375 107.605469 267.34375 C 107.6875 267.816406 107.699219 267.929688 107.832031 268.371094 C 108.578125 270.824219 109.480469 271.289063 110.285156 272.714844 C 110.324219 272.785156 110.4375 273.003906 110.484375 273.070313 C 110.769531 273.453125 110.5625 273.128906 110.824219 273.425781 C 111.03125 273.660156 111.0625 273.792969 111.28125 274.078125 L 113.996094 277.328125 C 114.054688 277.386719 114.230469 277.558594 114.277344 277.605469 L 115.085938 278.601563 C 117.859375 281.351563 120.433594 284.234375 123.210938 286.996094 L 123.886719 287.707031 C 123.90625 287.726563 123.933594 287.757813 123.953125 287.777344 L 124.875 288.800781 C 125.433594 289.558594 126.410156 290.617188 127.1875 291.207031 L 128.328125 292.148438 C 129.65625 293.480469 131.125 294.621094 132.527344 295.859375 C 132.671875 295.988281 132.683594 296.050781 132.875 296.207031 L 134.21875 297.222656 C 134.703125 297.601563 135.058594 297.9375 135.507813 298.292969 C 135.933594 298.636719 136.433594 298.925781 136.894531 299.265625 L 144.523438 303.992188 C 145.273438 304.378906 146.6875 305.429688 147.464844 305.273438 C 149.699219 305.953125 148.195313 306.601563 153.320313 304.953125 C 155.273438 304.328125 157.125 303.824219 159.230469 303.214844 C 164.039063 301.816406 169.4375 300.046875 174 298.847656 C 175.242188 298.519531 174.925781 298.671875 175.847656 296.820313 C 176.292969 295.925781 176.695313 295.117188 177.09375 294.324219 C 178.820313 290.90625 181.378906 284.039063 182.421875 280.332031 C 183.148438 277.738281 182.84375 268.789063 182.84375 265.515625 C 182.84375 260.378906 182.84375 255.242188 182.84375 250.109375 C 182.84375 246.554688 183.171875 247.609375 181.660156 245.613281 L 179.898438 243.492188 C 178.121094 241.285156 174.984375 238.894531 172.382813 237.554688 C 170.882813 236.785156 167.691406 235.902344 166.074219 236.089844 C 166.269531 236.472656 166.980469 237.285156 167.28125 237.648438 C 167.5625 237.992188 168.625 238.894531 167.871094 239.503906 C 167.289063 241.289063 167.808594 241.734375 168.859375 243.011719 L 171.160156 245.996094 C 171.335938 246.144531 171.363281 246.285156 171.886719 246.15625 C 172.488281 246.011719 172.6875 245.804688 173.839844 245.804688 C 173.902344 246.59375 174.101563 246.425781 174.386719 246.921875 L 176.195313 250.386719 C 175.984375 250.527344 175.757813 250.660156 175.542969 250.84375 C 175.050781 251.261719 174.132813 252.195313 173.5625 252.328125 L 174.484375 255.703125 C 174.75 256.585938 175.351563 258.554688 175.363281 259.128906 C 175.6875 259.128906 176.023438 259.140625 176.34375 259.121094 L 177.179688 259.128906 L 177.167969 264.929688 C 175.582031 265.039063 174.628906 264.90625 173.09375 265.179688 C 172.828125 265.691406 171.011719 269.925781 170.949219 270.371094 C 171.234375 271.015625 172.847656 272.289063 173.4375 273.148438 C 173.242188 273.699219 171.769531 275.347656 171.332031 275.914063 C 170.84375 276.550781 169.730469 278.078125 169.117188 278.546875 C 168.296875 278.1875 167.097656 277.039063 166.21875 276.453125 C 165.570313 276.019531 165.375 276.382813 164.105469 277.300781 L 161.050781 279.507813 L 161.558594 282.726563 L 161.484375 282.777344 C 161.832031 283.0625 161.695313 282.644531 161.726563 283.28125 C 161.433594 283.453125 155.765625 284.941406 155.351563 284.976563 L 153.683594 281.113281 L 147.195313 281.351563 C 146.675781 282.066406 146.363281 283.949219 145.800781 284.640625 C 145.382813 284.59375 139.546875 282.277344 139.179688 282.03125 C 139.375 281.023438 139.773438 279.804688 140.015625 278.839844 C 139.429688 278.246094 135.585938 275.886719 134.558594 275.152344 C 133.707031 275.515625 132.894531 276.425781 132.195313 276.640625 C 131.832031 276.34375 128.378906 271.703125 128.1875 271.203125 C 128.507813 270.605469 129.046875 270.007813 129.441406 269.402344 C 129.289063 268.710938 127.058594 264.882813 126.433594 263.78125 C 125.546875 262.226563 125.941406 263.160156 124.5625 262.742188 C 124.078125 261.414063 123.914063 256.488281 123.914063 254.828125 C 123.925781 246.90625 128.429688 239.851563 133.234375 233.9375 C 135.238281 231.46875 136.929688 229.574219 139.75 227.535156 C 141.574219 226.21875 143.144531 225.308594 145.34375 224.507813 C 147.65625 223.664063 149.914063 223.328125 152.40625 222.84375 C 156.964844 221.953125 162.453125 220.984375 166.824219 220.019531 C 167.949219 219.773438 169.167969 219.523438 170.359375 219.324219 C 173.441406 218.8125 172.929688 219.253906 175.625 215.9375 L 178.632813 212.425781 C 179.054688 211.910156 179.214844 211.6875 179.648438 211.226563 L 183.597656 206.566406 C 183.90625 205.953125 183.746094 186.496094 183.710938 184.984375 C 183.164063 185.023438 178.046875 187.023438 177.164063 187.378906 C 175.464844 188.058594 175.765625 188.0625 174.878906 189.515625 C 174.226563 190.582031 173.847656 191.128906 173.042969 192.261719 C 171.148438 194.9375 170.929688 194.9375 168.835938 197.078125 C 167.953125 197.984375 164.792969 200.382813 163.289063 200.546875 L 160.644531 197.953125 C 160.113281 198.011719 154.609375 200.484375 153.9375 200.894531 L 153.90625 205.085938 C 152.617188 205.539063 151.300781 206.050781 149.871094 206.5625 C 147.238281 207.503906 148.121094 207.710938 146.203125 206.261719 C 144.597656 205.046875 144.851563 205.1875 142.214844 206.121094 C 140.773438 206.632813 139.398438 207.160156 137.953125 207.566406 C 137.957031 210.820313 138.304688 211.101563 137.394531 211.585938 C 137.113281 211.738281 136.882813 211.835938 136.648438 211.953125 L 132.476563 214.03125 C 130.996094 213.371094 131.605469 212.003906 128.9375 214.652344 C 128.078125 215.5 128.28125 216.601563 127.863281 217.351563" />

      <!-- Tentacle 5: upper-right arm -->
      <path fill="url(#tentacle-grad)"
        d="M 250.316406 108.449219 C 250.78125 108.765625 251.355469 109.71875 251.554688 110.054688 C 251.40625 110.582031 250.59375 111.9375 250.28125 112.648438 C 249.808594 113.730469 249.683594 114.535156 249.347656 115.585938 C 246.746094 115.660156 247.328125 115.46875 246.152344 115.414063 C 246.015625 115.40625 245.738281 115.421875 245.601563 115.441406 L 245.164063 115.515625 L 243.511719 122.421875 C 244.410156 122.796875 245.398438 123.984375 246.339844 124.558594 C 246.222656 125.070313 245.871094 125.8125 245.691406 126.253906 C 245.003906 127.988281 244.597656 129.574219 244.425781 131.515625 C 243.832031 131.886719 243.167969 131.933594 242.269531 131.925781 C 241.304688 131.914063 240.855469 132.097656 239.871094 132.09375 C 239.460938 133.464844 238.972656 135.183594 238.46875 136.652344 C 238.320313 137.082031 238.210938 137.445313 238.097656 137.835938 C 237.898438 138.527344 237.835938 138.464844 238.195313 138.957031 C 238.445313 139.300781 238.710938 139.496094 238.941406 139.761719 C 240.992188 142.125 241.136719 142.109375 240.019531 144.589844 C 239.207031 146.402344 237.863281 148.738281 236.730469 150.320313 C 234.902344 152.863281 232.910156 152.066406 229.910156 152.339844 C 228.867188 152.433594 228.179688 152.5 227 152.496094 L 218.53125 152.882813 C 218.046875 153.503906 217.3125 155.101563 216.871094 155.996094 C 215.917969 157.925781 212.160156 164.609375 211.972656 165.628906 C 216.132813 167.085938 215.632813 166.664063 219.5625 167.3125 C 220.285156 167.429688 221.109375 167.371094 221.867188 167.367188 C 223.519531 167.363281 226.300781 168.007813 228.277344 167.136719 C 230.3125 166.242188 232.511719 165.101563 234.515625 164.066406 C 236.613281 162.980469 238.71875 162.089844 240.769531 161.03125 C 246.414063 158.125 250.757813 156.785156 254.394531 151.339844 C 255.03125 150.382813 255.535156 149.609375 256.089844 148.453125 C 257.019531 146.507813 257.945313 143.96875 258.554688 141.640625 C 259.21875 139.101563 259.746094 136.796875 260.328125 134.101563 C 260.882813 131.523438 261.28125 128.910156 261.917969 126.382813 C 263.09375 121.738281 264.976563 116.886719 267.300781 113.160156 C 268.332031 111.507813 270.265625 109.613281 271.777344 108.335938 C 275.171875 105.472656 279.773438 103.113281 284.492188 102.46875 C 285.667969 102.304688 292.191406 101.609375 292.96875 102.210938 L 294.132813 102.316406 L 294.199219 104.199219 L 299.199219 106.6875 L 300.703125 105.226563 C 301.132813 105.363281 304.789063 108.203125 305.273438 108.660156 C 305.117188 109.101563 304.875 109.328125 304.644531 109.691406 C 303.503906 111.445313 304.285156 110.402344 305.101563 112.554688 C 304.96875 113.191406 305.253906 113.171875 305.722656 114.058594 C 305.886719 114.367188 306.328125 115.171875 306.644531 115.351563 C 306.746094 115.410156 306.636719 115.5625 307.265625 115.34375 C 308.132813 115.039063 309.230469 114.96875 309.726563 114.636719 C 309.738281 115.289063 309.78125 115 309.996094 115.613281 L 310.527344 117.378906 C 310.539063 117.410156 310.574219 117.5 310.589844 117.535156 L 311.390625 119.910156 C 310.613281 119.910156 310.625 119.992188 310.046875 120.230469 L 308.890625 120.464844 L 308.890625 126.15625 L 310.835938 127.128906 C 311.078125 127.242188 311.285156 127.289063 311.527344 127.40625 C 311.527344 128.183594 311.269531 128.859375 311.136719 129.550781 C 311.003906 130.21875 310.710938 131.320313 310.695313 131.988281 C 309.707031 131.988281 309.570313 131.8125 308.828125 131.65625 C 307.546875 131.382813 307.667969 131.019531 306.4375 132.863281 L 304.75 135.339844 C 304.714844 135.519531 304.726563 135.6875 304.726563 135.871094 C 304.964844 136.039063 304.945313 136.015625 305.144531 136.09375 C 305.5625 136.390625 306.453125 137.976563 306.546875 138.371094 L 302.644531 142.242188 C 302.296875 141.984375 301.011719 140.503906 300.703125 140.074219 C 300.03125 140.089844 296.96875 141.449219 296.289063 141.738281 L 296.25 145.210938 L 291.109375 145.183594 L 291.109375 144.058594 C 290.308594 143.808594 289.425781 143.613281 288.53125 143.328125 C 287.746094 143.078125 286.636719 142.59375 285.851563 142.910156 C 285.574219 142.941406 285.582031 142.925781 285.265625 143.472656 C 285.015625 143.902344 284.988281 143.941406 284.601563 144.203125 L 284.703125 144.617188 C 284.542969 144.921875 284.734375 144.746094 284.457031 144.914063 L 279.921875 142.71875 L 280.273438 140.300781 L 276.917969 138.136719 C 276.105469 137.675781 276.316406 138.097656 275.441406 138.132813 C 274.839844 137.640625 274.75 137.28125 274.257813 136.777344 C 273.929688 136.4375 273.460938 135.769531 273.054688 135.546875 C 272.984375 136.636719 273.019531 137.832031 273.019531 138.933594 C 273.015625 140.070313 273.03125 139.828125 274.210938 140.988281 C 274.777344 141.546875 275.394531 142.011719 275.980469 142.550781 L 284.976563 149.097656 C 285.308594 149.347656 285.121094 149.136719 285.359375 149.476563 C 285.433594 149.675781 285.289063 149.511719 285.554688 149.773438 L 286.707031 150.5625 C 287.507813 151.015625 288.1875 151.640625 289.039063 151.980469 C 290.445313 152.535156 293.859375 153.535156 295.40625 153.800781 C 296.800781 154.042969 298.367188 154.402344 299.769531 154.574219 C 300.644531 154.679688 301.1875 154.703125 302.015625 154.832031 C 302.925781 154.972656 303.296875 154.847656 304.089844 154.96875 L 307.417969 154.667969 C 307.652344 154.53125 307.628906 154.539063 307.851563 154.410156 C 307.890625 154.386719 307.996094 154.328125 308.03125 154.308594 L 308.199219 154.195313 C 308.222656 154.179688 308.253906 154.152344 308.277344 154.136719 L 317.183594 149.085938 C 317.394531 149.003906 317.371094 149.011719 317.617188 148.910156 L 318.4375 148.582031 C 318.46875 148.570313 318.550781 148.539063 318.578125 148.527344 L 318.726563 148.484375 C 318.742188 148.476563 318.785156 148.46875 318.804688 148.464844 L 319.117188 148.390625 C 319.460938 148.28125 319.59375 148.203125 320.007813 148.101563 C 320.652344 147.945313 321.011719 147.808594 321.46875 147.363281 L 321.746094 147.125 C 322.15625 146.777344 322.199219 146.464844 322.328125 145.980469 C 322.566406 145.089844 322.636719 144.722656 322.632813 143.785156 C 322.625 141.902344 322.832031 134.289063 322.554688 133.175781 C 322.402344 132.578125 322.535156 132.277344 322.421875 131.644531 C 321.828125 128.34375 318.40625 120.648438 316.921875 117.015625 C 316.6875 116.4375 316.363281 115.890625 316.128906 115.3125 C 315.867188 114.667969 315.632813 114.238281 315.320313 113.617188 C 314.730469 112.429688 314.1875 111.34375 313.609375 110.195313 C 312.507813 107.984375 311.363281 105.824219 310.097656 103.714844 C 309.144531 102.132813 308.3125 100.558594 307.261719 99.054688 C 306.925781 98.574219 307.089844 98.753906 306.546875 98.519531 L 306.074219 98.300781 C 305.839844 98.179688 305.839844 98.1875 305.605469 98.066406 L 304.769531 97.722656 C 304.75 97.71875 304.710938 97.703125 304.691406 97.695313 L 304.058594 97.40625 C 303.832031 97.296875 303.949219 97.351563 303.695313 97.210938 L 295.203125 93.484375 C 294.929688 93.335938 295.066406 93.402344 294.851563 93.300781 C 294.839844 93.296875 294.800781 93.277344 294.785156 93.273438 L 294.632813 93.207031 C 294.609375 93.199219 294.570313 93.179688 294.546875 93.171875 C 294.308594 93.078125 294.230469 93.0625 294.042969 92.984375 L 293.574219 92.757813 C 293.546875 92.742188 293.511719 92.71875 293.484375 92.703125 L 290.511719 91.378906 C 290.117188 91.164063 289.972656 91.1875 289.59375 91.042969 L 289.046875 90.761719 C 287.390625 89.832031 281.261719 90.53125 278.917969 90.339844 C 278.214844 90.28125 277.394531 90.246094 276.542969 90.183594 C 275.558594 90.109375 275.855469 90.355469 275.855469 91.875 C 275.378906 91.875 274.515625 91.808594 274.09375 91.914063 L 272.605469 92.371094 C 271.925781 92.519531 270.210938 93.574219 269.890625 93.539063 C 269.613281 93.507813 269.183594 93.125 268.941406 92.957031 C 268.679688 92.773438 268.589844 92.539063 268.242188 92.394531 C 267.757813 92.1875 267.402344 92.382813 267.011719 92.601563 L 266.566406 92.855469 C 265.796875 93.246094 264.886719 93.566406 264.15625 94.054688 C 263.484375 94.503906 262.148438 95.289063 261.421875 95.480469 C 261.421875 96.597656 261.699219 97.28125 261.699219 98.398438 C 261.425781 98.542969 261.230469 98.679688 260.992188 98.800781 C 260.621094 98.996094 260.640625 98.929688 260.269531 99.1875 C 259.777344 99.523438 259.515625 99.84375 259.09375 100.230469 L 257.769531 101.683594 C 257.753906 101.707031 257.730469 101.742188 257.710938 101.765625 C 257.695313 101.789063 257.667969 101.820313 257.652344 101.84375 C 257.636719 101.867188 257.609375 101.898438 257.59375 101.921875 C 257.574219 101.945313 257.546875 101.976563 257.53125 102.003906 L 257.320313 102.347656 C 257.078125 102.824219 257.253906 102.328125 257.117188 102.839844 C 256.574219 102.710938 255.929688 102.578125 255.414063 102.460938 C 255.179688 102.410156 255.167969 102.402344 254.980469 102.339844 C 254.503906 102.171875 254.984375 102.285156 254.578125 102.1875 C 254.238281 102.109375 253.863281 102.144531 253.511719 102.144531 C 253.453125 102.84375 253.019531 103.101563 252.683594 103.640625 L 251.070313 106.230469 C 250.84375 106.527344 249.769531 107.847656 249.988281 108.222656 C 250.257813 108.683594 250.054688 108.371094 250.316406 108.449219" />

      <!-- Tentacle 6: upper-left arm -->
      <path fill="url(#tentacle-grad)"
        d="M 64.601563 99.292969 C 63.351563 100.601563 58.519531 109.863281 57.429688 112.046875 C 56.300781 114.304688 55.25 116.46875 54.25 118.859375 C 52.492188 123.058594 51.570313 125.480469 50.109375 129.710938 C 49.585938 131.230469 49.753906 142.828125 49.746094 144.0625 C 49.730469 147.046875 50.6875 147.554688 52.816406 148.203125 L 54.664063 148.863281 C 56.160156 149.378906 58.285156 150.707031 59.6875 151.339844 C 60.40625 151.664063 60.53125 152.175781 61.410156 152.1875 C 62.96875 152.742188 64.636719 154.644531 66.265625 154.761719 C 69.820313 155.023438 75.898438 153.804688 79.289063 152.945313 C 84 151.753906 84.96875 150.617188 89.113281 147.878906 C 90.144531 147.195313 95.671875 143.203125 96.5 142.371094 C 96.894531 141.972656 97.015625 141.824219 97.53125 141.460938 C 98.148438 141.027344 99.1875 140.140625 99.25 139.355469 C 99.324219 138.433594 99.28125 136.496094 99.203125 135.554688 C 98.542969 135.894531 97.167969 138.054688 96.804688 138.144531 C 95.921875 138.015625 96.226563 137.644531 95.496094 138.03125 L 92.007813 140.332031 C 92.039063 140.898438 92.3125 142 92.324219 142.535156 C 91.980469 142.847656 88.328125 144.742188 87.78125 144.851563 C 87.160156 144.3125 86.753906 143.367188 86.117188 142.6875 L 81.148438 144.050781 L 81.148438 145.199219 L 76.011719 145.207031 L 76 141.710938 C 75.070313 141.398438 72.355469 140.097656 71.527344 140.035156 L 69.597656 142.203125 C 69.152344 141.949219 65.878906 138.613281 65.71875 138.234375 C 65.988281 137.765625 66.164063 137.449219 66.492188 136.933594 C 67.558594 135.246094 67.664063 135.800781 66.027344 133.613281 C 65.542969 132.96875 65.148438 132.285156 64.601563 131.753906 L 61.546875 132.417969 C 61.3125 131.878906 61.136719 130.546875 60.992188 129.910156 C 60.839844 129.242188 60.527344 127.988281 60.601563 127.285156 C 61.363281 126.8125 62.453125 126.304688 63.21875 125.914063 L 63.226563 120.882813 C 62.535156 120.417969 61.476563 120.34375 60.6875 120.113281 C 60.761719 119.527344 62.25 114.914063 62.488281 114.503906 L 65.59375 115.238281 C 66.007813 114.476563 66.496094 113.628906 66.917969 112.933594 C 67.21875 112.441406 68.113281 111.066406 68.203125 110.609375 C 67.894531 109.828125 67.246094 109.492188 67.058594 108.667969 C 67.328125 108.328125 68.097656 107.660156 68.625 107.46875 L 68.882813 107.71875 C 69.136719 107.351563 69.136719 107.382813 69.457031 107.140625 C 69.738281 106.921875 69.855469 106.792969 70.132813 106.566406 L 71.253906 105.742188 C 71.398438 105.582031 71.324219 105.773438 71.402344 105.476563 C 72.351563 106.109375 72.652344 107.433594 73.933594 106.621094 L 77.117188 104.945313 C 77.304688 104.855469 77.398438 104.824219 77.601563 104.734375 C 79.027344 104.101563 78.390625 104.265625 78.324219 103.25 C 78.261719 102.234375 78.59375 102.28125 81.257813 102.28125 C 83.066406 102.285156 84.621094 102.351563 86.253906 102.421875 C 87.007813 102.453125 87.589844 102.71875 88.335938 102.839844 L 91.230469 103.546875 C 91.546875 103.652344 91.851563 103.699219 92.195313 103.835938 L 96.605469 105.8125 C 96.871094 105.984375 97.121094 106.234375 97.390625 106.398438 L 98.746094 107.28125 C 98.976563 107.453125 99.222656 107.625 99.460938 107.816406 L 101.558594 109.605469 C 103.558594 111.609375 104.886719 113.238281 106.175781 115.8125 L 108.871094 122.265625 C 109.03125 122.632813 109.054688 122.769531 109.191406 123.210938 L 111.847656 134.667969 C 111.855469 134.691406 111.859375 134.734375 111.863281 134.757813 C 111.867188 134.777344 111.875 134.816406 111.878906 134.839844 L 113.101563 140.277344 C 113.167969 140.519531 113.097656 140.324219 113.191406 140.597656 L 113.582031 142.136719 C 113.679688 142.609375 113.726563 142.726563 113.871094 143.09375 L 114.292969 143.992188 C 114.554688 144.210938 115.933594 147.976563 116.3125 148.730469 C 116.613281 149.332031 116.796875 149.558594 117.101563 150.136719 C 118.902344 153.574219 122.953125 156.984375 126.425781 158.578125 C 132.347656 161.300781 138.457031 164.539063 144.445313 167.339844 C 145.1875 167.683594 147.730469 167.632813 148.707031 167.527344 C 149.871094 167.402344 151.90625 167.457031 152.851563 167.242188 C 153.296875 167.144531 154.347656 167.0625 154.832031 167.007813 C 155.507813 166.933594 156.152344 166.820313 156.78125 166.683594 C 158.167969 166.382813 159.019531 165.996094 160.273438 165.605469 C 160.152344 164.917969 157.019531 158.929688 156.261719 157.601563 C 155.726563 156.664063 153.984375 153.003906 153.710938 152.871094 C 151.800781 152.722656 149.8125 152.691406 147.875 152.671875 L 142.195313 152.324219 C 136.832031 152.160156 136.355469 152.441406 133.179688 146.542969 C 132.824219 145.886719 132.488281 145.136719 132.199219 144.484375 C 130.78125 141.261719 131.984375 141.863281 134.101563 138.875 C 134.375 138.488281 134.367188 138.507813 134.195313 137.9375 C 133.945313 137.09375 132.503906 131.8125 132.273438 132.191406 C 132.25 132.226563 132.1875 132.160156 132.15625 132.15625 C 132.125 132.148438 132.074219 132.132813 132.035156 132.125 L 131.324219 132.015625 C 130.339844 131.824219 128.257813 131.984375 127.917969 131.558594 L 127.152344 127.871094 C 126.878906 127.011719 126.035156 125.160156 126.03125 124.425781 C 126.871094 123.910156 128.082031 122.738281 128.761719 122.433594 L 127.085938 115.425781 C 125.574219 115.386719 124.5 115.636719 122.910156 115.582031 C 121.5625 109.449219 119.8125 111.375 121.484375 108.925781 C 121.679688 108.640625 121.855469 108.441406 122.054688 108.113281 L 118.457031 102.4375 C 117.191406 102.5 116.164063 103.03125 115.070313 103.164063 C 114.640625 101.675781 111.9375 99.242188 110.429688 98.679688 C 110.425781 95.121094 111.542969 96.261719 108.589844 94.65625 C 103.570313 91.929688 104.804688 92.398438 102.492188 93.941406 C 101.554688 93.597656 100.824219 93.039063 99.730469 92.691406 C 98.226563 92.214844 97.960938 92.25 96.257813 92.148438 C 96.238281 91.855469 96.304688 90.703125 96.070313 90.503906 C 95.9375 90.429688 87.492188 90.582031 86.394531 90.582031 C 84.113281 90.582031 84.015625 90.71875 82.292969 91.53125 L 64.601563 99.292969" />

    </g>
  </g>

  <!-- Robot head -->
  <g transform="translate(100, 62)">
    <!-- Antenna -->
    <rect x="-1.25" y="-26" width="2.5" height="12" fill="url(#head-grad)" />
    <circle cx="0" cy="-28" r="3.5" fill="url(#tentacle-grad)" />

    <!-- Head shell -->
    <rect x="-20" y="-14" width="40" height="26" rx="7" ry="7" fill="transparent" stroke="url(#head-grad)"
      stroke-width="3" />

    <!-- Eyes -->
    <rect x="-13" y="-8" width="9" height="7" rx="2" fill="url(#tentacle-grad)" />
    <rect x="4" y="-8" width="9" height="7" rx="2" fill="url(#tentacle-grad)" />

    <!-- Ear bolts -->
    <circle cx="-22" cy="-1" r="3.5" fill="url(#tentacle-grad)" />
    <circle cx="22" cy="-1" r="3.5" fill="url(#tentacle-grad)" />
  </g>
</svg>
