<svg id="title" xmlns="http://www.w3.org/2000/svg" viewBox="0 0 244 44" width="244" height="44">
  <defs>
    <linearGradient id="title-grad" x1="0%" y1="0%" x2="100%" y2="0%">
      <stop offset="0%" stop-color="#00ffab" />
      <stop offset="50%" stop-color="#00c4ff" />
      <stop offset="100%" stop-color="#7b61ff" />
    </linearGradient>
    <filter id="title-glow" x="-5%" y="-20%" width="110%" height="140%">
      <feGaussianBlur stdDeviation="1.5" result="blur" />
      <feMerge>
        <feMergeNode in="blur" />
        <feMergeNode in="SourceGraphic" />
      </feMerge>
    </filter>
  </defs>
  <path fill="url(#title-grad)" filter="url(#title-glow)"
    d="M0 43.75L0 0L37.50 0L37.50 6.25L43.75 6.25L43.75 25L37.50 25L37.50 31.25L12.50 31.25L12.50 43.75L0 43.75M12.50 25L31.25 25L31.25 6.25L12.50 6.25L12.50 25ZM56.25 43.75L56.25 37.50L50 37.50L50 18.75L56.25 18.75L56.25 12.50L87.50 12.50L87.50 18.75L93.75 18.75L93.75 37.50L87.50 37.50L87.50 43.75L56.25 43.75M62.50 37.50L81.25 37.50L81.25 18.75L62.50 18.75L62.50 37.50ZM106.25 43.75L106.25 37.50L118.75 37.50L118.75 6.25L112.50 6.25L112.50 0L131.25 0L131.25 37.50L143.75 37.50L143.75 43.75L106.25 43.75ZM168.75 43.75L168.75 37.50L162.50 37.50L162.50 31.25L156.25 31.25L156.25 12.50L168.75 12.50L168.75 31.25L181.25 31.25L181.25 12.50L193.75 12.50L193.75 31.25L187.50 31.25L187.50 37.50L181.25 37.50L181.25 43.75L168.75 43.75ZM206.25 43.75L206.25 37.50L200 37.50L200 18.75L206.25 18.75L206.25 12.50L237.50 12.50L237.50 18.75L243.75 18.75L243.75 37.50L237.50 37.50L237.50 43.75L206.25 43.75M212.50 37.50L231.25 37.50L231.25 18.75L212.50 18.75L212.50 37.50Z" />
</svg>
